<svg xmlns="http://www.w3.org/2000/svg" viewBox="0 0 64 64"><defs><style>.a{fill:none;stroke:#dda46f;stroke-linecap:round;stroke-linejoin:round;stroke-width:1.5px;}</style></defs><ellipse class="a" cx="45.5" cy="26.89" rx="4.31" ry="1.61"/><ellipse class="a" cx="45.5" cy="26.89" rx="8.91" ry="4.69"/><ellipse class="a" cx="45.5" cy="26.89" rx="13.5" ry="7.77"/><path class="a" d="M59,27c0,4.29-6,7.77-13.5,7.77S33.18,31.7,29.06,29C19.7,23,9.88,25.75,5,27V37.15c4.88-1.26,14.7-4,24.06,2,4.12,2.66,9,5.71,16.44,5.71S59,41.41,59,37.11V26.89"/><line class="a" x1="9.15" y1="29.33" x2="9.15" y2="26.34"/><line class="a" x1="17.46" y1="28.64" x2="17.46" y2="25.65"/><line class="a" x1="25.77" y1="30.59" x2="25.77" y2="27.61"/><line class="a" x1="34.08" y1="35.07" x2="34.08" y2="32.09"/><line class="a" x1="42.38" y1="38.01" x2="42.38" y2="35.03"/><line class="a" x1="50.69" y1="37.6" x2="50.69" y2="34.62"/><line class="a" x1="13.31" y1="31.62" x2="13.31" y2="25.65"/><line class="a" x1="21.62" y1="32.09" x2="21.62" y2="26.12"/><line class="a" x1="29.92" y1="29.95" x2="29.92" y2="35.91"/><line class="a" x1="38.23" y1="39.98" x2="38.23" y2="34.01"/><line class="a" x1="46.54" y1="41" x2="46.54" y2="35.03"/><line class="a" x1="54.85" y1="39.09" x2="54.85" y2="33.12"/></svg>