<svg xmlns="http://www.w3.org/2000/svg" viewBox="0 0 72 72"><defs><style>.a{fill:none;stroke:#dda46f;stroke-linecap:round;stroke-linejoin:round;stroke-width:2px;}</style></defs><path class="a" d="M5.42,66.8s.26-5.38-1-27.49c-1.21-21,2-27.27,12.7-26.51,7.63.54,10.73-5.26,10.73-9.94"/><path class="a" d="M30.73,15.8s.69-3-13.62-3"/><path class="a" d="M18.76,12.81V24.9S9,33.3,14.94,44.54A40.92,40.92,0,0,1,16,66.8"/><path class="a" d="M14.94,44.54s8.2,9.2,18.65,1.26H36.5"/><path class="a" d="M36.5,41.7H33.86a22.73,22.73,0,0,0-15.1-16.8"/><path class="a" d="M66.58,66.8s-.26-5.38,1-27.49c1.21-21-2-27.27-12.7-26.51-7.63.54-10.73-5.26-10.73-9.94"/><path class="a" d="M41.27,15.8s-.69-3,13.62-3"/><path class="a" d="M53.24,12.81V24.9S63,33.3,57.06,44.54A40.92,40.92,0,0,0,56,66.8"/><path class="a" d="M57.06,44.54s-8.2,9.2-18.65,1.26H36.5"/><path class="a" d="M36.5,41.7h1.64a22.73,22.73,0,0,1,15.1-16.8"/></svg>