<svg xmlns="http://www.w3.org/2000/svg" viewBox="0 0 72 72"><defs><style>.a,.b{fill:none;stroke:#dda46f;stroke-linecap:round;stroke-linejoin:round;stroke-width:2px;}.b{stroke-dasharray:2 4;}</style></defs><path class="a" d="M3.77,34.83a86.64,86.64,0,0,0,9.62-14.7c4.61-8.84,11.68-8.35,11.68-8.35A7.83,7.83,0,0,0,33,4"/><polyline class="a" points="4.75 57.72 17.25 37.9 20.16 33.28"/><path class="a" d="M20.16,66.7a26.21,26.21,0,0,0,.67-18.77c-3.58-10-2.57-6.85-3.09-10.81"/><path class="a" d="M60.32,47.59S57,60.8,60.32,66.7"/><path class="a" d="M48.35,4S47.9,11.5,58.23,12s5.54,15.87,5.54,15.87"/><path class="a" d="M53.12,10.9S47,11.61,47,13.17"/><path class="a" d="M28.79,10.9s8.72.81,9.27,2.91"/><path class="a" d="M26.49,12s1.44,4.92,3,8.85A9.75,9.75,0,0,0,31.24,24c2.45,2.91,21.33,6.84,15.45,20.22-4.09,9.32-19.81,6.65-22.34-1.68-2.82-9.29,2.29-14,3.41-15.18,1.82-1.95,3.14-2.06,1.71-6.44"/><path class="a" d="M47,43.58A14,14,0,0,0,58.53,47.9s8.89-.09,8.45-10.78c-.37-8.75-8.75-9.77-8.75-16.1V12"/><path class="a" d="M58.23,21c-2.33,6.44-8.48,9.22-10.41,17.77"/><line class="a" x1="28.79" y1="47.99" x2="20.83" y2="47.93"/><line class="a" x1="23.51" y1="39.68" x2="18.39" y2="41.08"/><circle class="b" cx="22.26" cy="43.03" r="14.59"/></svg>