<svg xmlns="http://www.w3.org/2000/svg" viewBox="0 0 72 72"><defs><style>.a{fill:none;stroke:#dda46f;stroke-linecap:round;stroke-linejoin:round;stroke-width:2px;}</style></defs><path class="a" d="M6,25.67c5.22-8.67,17.12-7.91,17.12-7.91,9.73,0,10.36,4.5,21.07,4.5a24.73,24.73,0,0,0,13.63-3.78V5.14A24.82,24.82,0,0,1,44.16,8.92c-10.71,0-11.34-4.5-21.07-4.5C12.46,4.42,3.84,11,3.84,19A11.8,11.8,0,0,0,6,25.67c3.2,4.69,9.66,7.9,17.12,7.9,10.6,0,15.75-6,25.82-6,10.63,0,19.25,5.76,19.25,12.86S59.54,53.3,48.91,53.3c-9.9,0-10-2.72-19.29-2.72-5.25,0-9.57,1.39-12.6,3.65h0V67.58h0c3-2.26,7.35-3.65,12.6-3.65,9.31,0,9.39,2.72,19.29,2.72,10.63,0,19.25-5.76,19.25-12.86V40.44"/><line class="a" x1="68.16" y1="40.44" x2="68.16" y2="53.78"/><line class="a" x1="20.71" y1="52.18" x2="20.71" y2="65.52"/><line class="a" x1="25.65" y1="64.21" x2="25.65" y2="58.88"/><line class="a" x1="31.27" y1="63.96" x2="31.27" y2="55.94"/><line class="a" x1="36.9" y1="64.71" x2="36.9" y2="59.79"/><line class="a" x1="42.52" y1="66.13" x2="42.52" y2="57.87"/><line class="a" x1="48.15" y1="66.63" x2="48.15" y2="60.93"/><line class="a" x1="53.77" y1="66.23" x2="53.77" y2="57.87"/><line class="a" x1="64.42" y1="61.39" x2="64.42" y2="53.78"/><line class="a" x1="59.4" y1="64.57" x2="59.4" y2="59.39"/><line class="a" x1="25.65" y1="46.38" x2="25.65" y2="41.05"/><line class="a" x1="31.27" y1="45.42" x2="31.27" y2="37.4"/><line class="a" x1="36.9" y1="43.72" x2="36.9" y2="38.8"/><line class="a" x1="42.52" y1="41.53" x2="42.52" y2="33.28"/><line class="a" x1="8.46" y1="41.41" x2="8.46" y2="33.4"/><line class="a" x1="14.09" y1="45.25" x2="14.09" y2="40.34"/><line class="a" x1="19.71" y1="46.43" x2="19.71" y2="38.17"/><line class="a" x1="48.15" y1="40.94" x2="48.15" y2="35.24"/><line class="a" x1="53.77" y1="41.05" x2="53.77" y2="32.69"/><line class="a" x1="64.42" y1="45.71" x2="64.42" y2="38.8"/><line class="a" x1="59.4" y1="43.03" x2="59.4" y2="37.85"/><line class="a" x1="20.02" y1="17.69" x2="20.02" y2="12.36"/><line class="a" x1="25.65" y1="17.81" x2="25.65" y2="9.8"/><line class="a" x1="31.27" y1="19" x2="31.27" y2="14.08"/><line class="a" x1="36.9" y1="21.03" x2="36.9" y2="12.77"/><line class="a" x1="8.46" y1="22.19" x2="8.46" y2="17.27"/><line class="a" x1="14.09" y1="18.91" x2="14.09" y2="10.65"/><line class="a" x1="42.52" y1="21.85" x2="42.52" y2="16.15"/><line class="a" x1="48.15" y1="21.87" x2="48.15" y2="13.51"/><line class="a" x1="53.77" y1="20.54" x2="53.77" y2="7.2"/><path class="a" d="M65.37,47.11C62,43.4,55.89,40.92,48.91,40.92c-10.07,0-15.22,6-25.82,6S3.84,40.39,3.84,32.34V19"/></svg>