<svg xmlns="http://www.w3.org/2000/svg" viewBox="0 0 72 72"><defs><style>.a{fill:none;stroke:#dda46f;stroke-linecap:round;stroke-linejoin:round;stroke-width:2px;}.b{fill:#dda46f;}</style></defs><path class="a" d="M5.42,66.8s.26-5.38-1-27.49c-1.21-21,2-27.27,12.7-26.51,7.63.54,10.73-5.26,10.73-9.94"/><path class="a" d="M30.73,15.8s.69-3-13.62-3"/><path class="a" d="M17,59.39a37.92,37.92,0,0,1-1,7.41"/><path class="a" d="M13.59,41.25a17.46,17.46,0,0,0,1.35,3.29A36.75,36.75,0,0,1,16.68,52"/><path class="a" d="M18.76,12.81V24.9A18.23,18.23,0,0,0,13.1,35.62"/><path class="a" d="M14.94,44.54s8.2,9.2,18.65,1.26H36.5"/><path class="a" d="M36.5,41.7H33.86a22.73,22.73,0,0,0-15.1-16.8"/><path class="a" d="M66.58,66.8s-.26-5.38,1-27.49c1.21-21-2-27.27-12.7-26.51-7.63.54-10.73-5.26-10.73-9.94"/><path class="a" d="M41.27,15.8s-.69-3,13.62-3"/><path class="a" d="M57.06,44.54s-8.2,9.2-18.65,1.26H36.5"/><path class="a" d="M36.5,41.7h1.64a22.73,22.73,0,0,1,15.1-16.8"/><path class="a" d="M55,59.39a37.14,37.14,0,0,0,1,7.41"/><path class="a" d="M58.45,41.25a18.08,18.08,0,0,1-1.34,3.29A36.29,36.29,0,0,0,55.36,52"/><path class="a" d="M53.29,12.81V24.9a18.18,18.18,0,0,1,5.65,10.72"/><path class="a" d="M61.16,32.27c1.38.82,2.15,1.73,2.15,2.68,0,3.81-12.23,6.89-27.31,6.89S8.69,38.76,8.69,35c0-1,.76-1.85,2.15-2.67"/><path class="a" d="M59.88,46.79c2.19,1,3.43,2.13,3.43,3.34C63.31,53.93,51.08,57,36,57S8.69,53.93,8.69,50.13c0-1.35,1.54-2.61,4.2-3.67"/><polygon class="b" points="26.99 41.25 26.51 45.76 22.84 43.08 19.17 40.41 23.32 38.57 27.48 36.73 26.99 41.25"/><polygon class="b" points="26.99 56.5 26.51 61.02 22.84 58.34 19.17 55.66 23.32 53.83 27.48 51.99 26.99 56.5"/></svg>