<svg xmlns="http://www.w3.org/2000/svg" viewBox="0 0 72 72"><defs><style>.a,.b,.c,.d{fill:none;stroke:#dda46f;stroke-width:2px;}.a{stroke-miterlimit:10;}.b,.c,.d{stroke-linecap:round;stroke-linejoin:round;}.c{stroke-dasharray:1.71 3.41;}.d{stroke-dasharray:1.79 3.58;}</style></defs><line class="a" x1="18.83" y1="37.05" x2="36.26" y2="37.05"/><path class="a" d="M11.49,37.05h-.77a2,2,0,0,1-1-3.71l3.56-2.14c2.46.46,4-.36,4.53-2.71L36.26,17.41V13"/><path class="a" d="M31.36,8.22a4.9,4.9,0,1,1,4.9,4.89"/><path class="a" d="M15.52,31.46V45.25c-4.28,2.24-4.12,7.37-4.12,7.37S10,66.34,20.75,66.34,34,60.83,34,60.83,28,45.25,15.52,45.25"/><line class="a" x1="36.26" y1="60.75" x2="34.03" y2="60.75"/><polyline class="a" points="11.34 54.28 8.57 54.28 8.57 63.96 14.53 63.96"/><line class="a" x1="53.68" y1="37.05" x2="36.26" y2="37.05"/><path class="a" d="M61,37.05h.77a2,2,0,0,0,1-3.71L59.26,31.2c-2.45.46-4-.36-4.52-2.71L36.26,17.41"/><path class="a" d="M57,31.46V45.25c4.27,2.24,4.11,7.37,4.11,7.37s1.4,13.72-9.35,13.72-13.28-5.51-13.28-5.51S44.5,45.25,57,45.25"/><line class="a" x1="36.26" y1="60.75" x2="38.48" y2="60.75"/><polyline class="a" points="61.17 54.28 63.95 54.28 63.95 63.96 57.99 63.96"/><path class="b" d="M19.45,63.49a3.86,3.86,0,0,1-.62-.77"/><path class="c" d="M17.43,59.62A35.38,35.38,0,0,1,16,51.23"/><path class="b" d="M15.87,49.51c0-.32,0-.66,0-1,0,0,.31.18.84.53"/><path class="d" d="M19.56,51.16a43.33,43.33,0,0,1,6.3,6.31"/><path class="b" d="M27,58.89l.59.81"/><path class="b" d="M52.65,63.47a4.22,4.22,0,0,0,.62-.78"/><path class="c" d="M54.67,59.59a35.28,35.28,0,0,0,1.46-8.39"/><path class="b" d="M56.23,49.49l0-1s-.3.17-.84.52"/><path class="d" d="M52.54,51.13a43.46,43.46,0,0,0-6.3,6.32"/><path class="b" d="M45.14,58.87c-.2.26-.39.53-.58.81"/></svg>