<svg width="996" height="112" viewBox="0 0 996 112" fill="none" xmlns="http://www.w3.org/2000/svg">
<g clip-path="url(#clip0_153_90)">
<path d="M198.908 107.101V24.7959H227.722C246.536 24.7959 255.943 34.1993 255.943 46.5476C255.943 60.6527 242.996 63.5975 242.996 63.5975V64.1914C242.996 64.1914 258.864 67.1361 258.864 84.1861C258.864 97.1282 248.863 107.126 229.455 107.126H198.908V107.101ZM210.666 35.9563V59.4649H227.722C238.887 59.4649 243.59 54.7632 243.59 47.7106C243.59 40.658 238.887 35.9563 227.722 35.9563H210.666ZM229.48 70.0562H210.666V95.9156H229.48C241.239 95.9156 246.536 90.62 246.536 82.9735C246.536 75.3518 241.239 70.0562 229.48 70.0562Z" fill="#909090"/>
<path d="M360.038 24.7959C381.203 24.7959 391.799 35.3871 391.799 51.2493C391.799 71.244 373.554 73.5948 373.554 73.5948V74.1887C373.554 74.1887 378.381 75.9457 381.203 82.4291L385.313 91.8326C386.848 95.3712 388.853 97.1282 392.962 97.1282C395.314 97.1282 397.666 96.5343 397.666 96.5343V107.126C397.666 107.126 394.126 108.289 390.61 108.289C381.798 108.289 377.664 104.181 374.148 96.5343L368.257 83.5922C366.598 80.0783 364.147 77.7026 360.013 77.7026H344.715V107.101H332.956V24.7959H360.038ZM360.038 66.5175C373.554 66.5175 379.446 60.628 379.446 51.2245C379.446 41.8211 373.554 35.9316 360.038 35.9316H344.739V66.4928H360.038V66.5175Z" fill="#909090"/>
<path d="M477.675 88.8631L471.213 107.101H458.267L489.433 24.7959H502.949L534.116 107.101H521.169L514.708 88.8631H477.675ZM496.488 37.7133H495.894L481.784 77.7027H510.599L496.488 37.7133Z" fill="#909090"/>
<path d="M614.716 63.0036H647.64V74.164H614.716V107.076H602.957V24.7959H653.531V35.9563H614.716V63.0036Z" fill="#909090"/>
<path d="M736.461 107.101H724.703V24.7959H736.461V107.101Z" fill="#909090"/>
<path d="M844.069 107.101H832.31V35.9563H807.604V24.7959H868.774V35.9563H844.069V107.101V107.101Z" fill="#909090"/>
<path d="M971.113 107.101H959.354V35.9563H934.648V24.7959H995.818V35.9563H971.113V107.101V107.101Z" fill="#909090"/>
<path d="M85.1085 112C74.6124 112 66.0719 105.343 60.2545 96.5338C54.4371 105.343 45.9214 112 35.4005 112C16.3392 112 0.817871 96.7565 0.817871 77.9991C0.817871 62.5824 11.3635 53.9461 20.6466 46.3243C21.0179 46.0274 21.3892 45.7057 21.7606 45.4087C18.6414 30.9324 18.2949 18.312 18.2701 17.0747C18.2701 6.97835 24.5579 0 33.5934 0C42.629 0 48.9168 6.97835 48.9168 16.9509C48.9168 32.2192 41.218 41.4247 32.8013 48.8732C36.3412 62.2855 42.4557 75.7472 53.0756 79.9788C52.2092 76.4401 51.7636 72.9757 51.7636 69.7587C51.7636 65.3787 54.7342 60.7265 60.2545 60.7265C65.7749 60.7265 68.7455 65.3787 68.7455 69.7587C68.7455 72.9757 68.2999 76.4401 67.4335 79.9788C78.0533 75.772 84.1926 62.3102 87.7078 48.8979C79.2911 41.4494 71.5923 32.2439 71.5923 16.9757C71.5923 6.97835 77.8801 0.0247465 86.9156 0.0247465C95.9512 0.0247465 102.239 7.00309 102.239 16.9757C102.214 18.2625 101.868 30.9076 98.7485 45.4087C99.1198 45.7057 99.4911 46.0274 99.8625 46.3243C109.146 53.9461 119.691 62.5824 119.691 77.9991C119.691 96.7318 104.195 112 85.1085 112ZM67.78 90.2236C72.1369 97.1525 78.3752 102.201 85.1085 102.201C98.7732 102.201 109.888 91.3372 109.888 77.9991C109.888 68.2245 103.699 62.236 96.0254 55.8515C91.2477 71.3672 82.7568 86.4375 67.78 90.2236ZM24.5084 55.8515C16.8343 62.2112 10.6456 68.1997 10.6456 77.9991C10.6456 91.3372 21.7606 102.201 35.4253 102.201C42.1587 102.201 48.3969 97.1525 52.7538 90.2236C37.7523 86.4127 29.2861 71.3425 24.5084 55.8515ZM86.9156 9.79938C81.9399 9.79938 81.3953 14.7981 81.3953 16.9509C81.3953 26.008 85.0342 32.2687 90.1338 37.6385C92.1142 26.2802 92.4112 17.0994 92.436 16.852C92.436 14.7981 91.8914 9.79938 86.9156 9.79938ZM33.6182 9.79938C28.6424 9.79938 28.0978 14.7981 28.0978 16.9509C28.0978 17.1489 28.4196 26.3049 30.4 37.6385C35.4996 32.2687 39.1385 26.008 39.1385 16.9509C39.1385 14.7981 38.5939 9.79938 33.6182 9.79938Z" fill="#909090"/>
</g>
<defs>
<clipPath id="clip0_153_90">
<rect width="995" height="112" fill="white" transform="matrix(1 0 0 -1 0.817871 112)"/>
</clipPath>
</defs>
</svg>
