<?xml version="1.0" encoding="utf-8"?>
<!-- Generator: Adobe Illustrator 25.4.1, SVG Export Plug-In . SVG Version: 6.00 Build 0)  -->
<svg version="1.1" id="Layer_1" xmlns="http://www.w3.org/2000/svg" xmlns:xlink="http://www.w3.org/1999/xlink" x="0px" y="0px"
	 viewBox="0 0 870 300" style="enable-background:new 0 0 870 300;" xml:space="preserve">
<style type="text/css">
	.st0{fill:#DDA46F;}
</style>
<path class="st0" d="M462.1,122.5c-11.5,0-20.8-7.2-27.1-16.8c-6.4,9.6-15.6,16.8-27.1,16.8c-20.8,0-37.8-16.5-37.8-36.9
	c0-16.7,11.5-26.1,21.7-34.4c0.4-0.3,0.8-0.7,1.2-1c-3.4-15.7-3.8-29.4-3.8-30.8c0-11,6.9-18.5,16.7-18.5c9.9,0,16.7,7.6,16.7,18.4
	c0,16.6-8.4,26.6-17.6,34.6c3.9,14.6,10.5,29.2,22.1,33.8c-0.9-3.8-1.4-7.6-1.4-11.1c0-4.8,3.2-9.8,9.3-9.8c6,0,9.3,5,9.3,9.8
	c0,3.5-0.5,7.3-1.4,11.1c11.6-4.6,18.3-19.2,22.1-33.7c-9.2-8.1-17.6-18.1-17.6-34.6c0-10.9,6.9-18.4,16.7-18.4
	c9.9,0,16.7,7.6,16.7,18.4c0,1.4-0.4,15.1-3.8,30.9c0.4,0.3,0.8,0.7,1.2,1c10.1,8.3,21.6,17.6,21.6,34.4
	C499.9,105.9,483,122.5,462.1,122.5z M443.2,98.8c4.8,7.5,11.6,13,18.9,13c14.9,0,27.1-11.8,27.1-26.3c0-10.6-6.8-17.1-15.1-24
	C468.8,78.4,459.6,94.7,443.2,98.8z M396,61.5c-8.4,6.9-15.1,13.4-15.1,24c0,14.5,12.1,26.3,27.1,26.3c7.4,0,14.2-5.5,18.9-13
	C410.4,94.7,401.2,78.3,396,61.5z M464.1,11.5c-5.4,0-6,5.4-6,7.8c0,9.8,4,16.6,9.5,22.5c2.2-12.3,2.5-22.3,2.5-22.6
	C470.1,17,469.5,11.5,464.1,11.5z M405.9,11.5c-5.4,0-6,5.4-6,7.8c0,0.2,0.3,10.2,2.5,22.5c5.6-5.8,9.5-12.6,9.5-22.5
	C411.9,17,411.4,11.5,405.9,11.5z"/>
<path d="M0,298.6v-89.3h31.5c20.5,0,30.8,10.2,30.8,23.6c0,15.3-14.1,18.5-14.1,18.5v0.6c0,0,17.3,3.2,17.3,21.7
	c0,14-10.9,24.9-32.1,24.9L0,298.6L0,298.6z M12.8,221.4v25.5h18.6c12.2,0,17.3-5.1,17.3-12.8c0-7.7-5.1-12.8-17.3-12.8H12.8z
	 M33.4,258.4H12.8v28.1h20.5c12.8,0,18.6-5.7,18.6-14C52,264.2,46.2,258.4,33.4,258.4z"/>
<path d="M175.9,209.3c23.1,0,34.7,11.5,34.7,28.7c0,21.7-19.9,24.3-19.9,24.3v0.6c0,0,5.3,1.9,8.4,8.9l4.5,10.2
	c1.7,3.8,3.9,5.7,8.4,5.7c2.6,0,5.1-0.6,5.1-0.6v11.5c0,0-3.9,1.3-7.7,1.3c-9.6,0-14.1-4.5-18-12.8l-6.4-14c-1.8-3.8-4.5-6.4-9-6.4
	h-16.7v31.9h-12.8v-89.3H175.9z M175.9,254.6c14.8,0,21.2-6.4,21.2-16.6c0-10.2-6.4-16.6-21.2-16.6h-16.7v33.2L175.9,254.6
	L175.9,254.6z"/>
<path d="M304.3,278.8l-7.1,19.8h-14.1l34-89.3h14.8l34,89.3h-14.1l-7.1-19.8H304.3z M324.9,223.3h-0.7l-15.4,43.4h31.5L324.9,223.3z
	"/>
<path d="M453.9,250.8h35.9v12.1h-35.9v35.7h-12.8v-89.3h55.2v12.1h-42.4V250.8z"/>
<path d="M586.9,298.6H574v-89.3h12.8V298.6z"/>
<path d="M704.3,298.6h-12.8v-77.2h-27v-12.1h66.8v12.1h-27V298.6z"/>
<path d="M843,298.6h-12.8v-77.2h-27v-12.1H870v12.1h-27V298.6z"/>
</svg>
