<svg xmlns="http://www.w3.org/2000/svg" viewBox="0 0 64 64"><defs><style>.a{fill:none;stroke:#dda46f;stroke-linecap:round;stroke-linejoin:round;stroke-width:1.5px;}</style></defs><path class="a" d="M46.84,18a1.76,1.76,0,0,0,.21-.83V14.78A1.77,1.77,0,0,0,45.28,13H39.64a1.76,1.76,0,0,0-1.76,1.77v2.43a1.76,1.76,0,0,0,.21.83,11.56,11.56,0,0,1,8.75,0Z"/><path class="a" d="M30.91,53.12a3.41,3.41,0,0,0,3.41,3.41H50.61A3.41,3.41,0,0,0,54,53.12V28.74A11.56,11.56,0,0,0,38.09,18a11.73,11.73,0,0,0-2,1.09"/><path class="a" d="M30.91,10.11a8.73,8.73,0,0,1,7-3.57H48.49"/><rect class="a" x="40.78" y="6.54" width="3.37" height="6.47"/><line class="a" x1="37.88" y1="29.09" x2="54.02" y2="29.09"/><path class="a" d="M31.27,15.53c0,2.83,4.78,4.26,4.78,10.33a4.78,4.78,0,0,1-9.56,0C26.49,19.79,31.27,18.36,31.27,15.53Z"/><path class="a" d="M10.12,48.08c-.81-1.28-1.64-2.56-2.46-3.83l-.28-.44c-.42-.64-.83-1.28-1.24-1.93A1.14,1.14,0,0,1,5.88,41a1.22,1.22,0,0,1,.68-.66l1.5-.72c.76-.35,1.55-.72,2.3-1.14a22.23,22.23,0,0,0,2.8-1.86A6.89,6.89,0,0,1,17.43,35a7.4,7.4,0,0,1,2.57.49c1.14.43,2.25,1,3.32,1.51.6.3,1.22.61,1.85.89a12.19,12.19,0,0,0,2,.76c1.21.29,2.42.55,3.6.79.51.11,1,.16,1.53.27.94.2,1.4.64,1.38,1.55-.12.56-.18,2.47-.87,2.47a8.27,8.27,0,0,1-1-.1l-9.75-2.08.59.13,9,1.93a3.8,3.8,0,0,0,.77.09c.88,0,.88,0,1.16-1.45.12-.24,1.21-.46,1.45-.56,3.28-1.33,6.49-2.64,9.78-3.93A8.42,8.42,0,0,1,46,37.44l.11,0a1.66,1.66,0,0,1,.54-.06.53.53,0,0,1,.41.25.44.44,0,0,1,0,.42,3.53,3.53,0,0,1-1.1,1l-5.5,4-.31.21q-2.76,2-5.54,4a6.7,6.7,0,0,1-5.47,1c-2.48-.5-5-1.05-7.19-1.54l-.13,0L19,46.08a5.75,5.75,0,0,0-3.69.44c-1.26.56-2.49,1.19-3.86,1.88A.86.86,0,0,1,10.12,48.08Z"/></svg>