<svg xmlns="http://www.w3.org/2000/svg" viewBox="0 0 64 64"><defs><style>.a{fill:none;stroke:#dda46f;stroke-linecap:round;stroke-linejoin:round;stroke-width:1.5px;}</style></defs><path class="a" d="M33.49,31.3s1.78-7.67,7.17-4.82c3.41,1.81,2.24,5.86.93,8.59A11.28,11.28,0,0,1,37.25,40c-1.78,1-3.76,1.4-3.76-2.17"/><path class="a" d="M37.25,40s3.2,8-6,12.72c0,0,12.25,13.1,22.91-8.22,5.33-10.67,2.52-20-1.63-26.61C48.17,10.87,40.2,5.75,32,5.54c-10.23-.26-22.25.93-15.92,10C23,25.46,30.28,25.85,30.28,25.85"/><path class="a" d="M15,13.83s-4.63,2.73-4.63,8.07,2.9,4.72,0,11"/><path class="a" d="M21.14,33.94a37.58,37.58,0,0,0,6.18,9.3,22.77,22.77,0,0,1-7.17,10.14,4.34,4.34,0,0,1-5.13.3c-4.22-3.53-7.52-7.34-7.9-12a11.56,11.56,0,0,1,1.6-8.38A51.6,51.6,0,0,0,21.14,33.94Z"/><line class="a" x1="34.62" y1="28.51" x2="21.14" y2="33.94"/><line class="a" x1="27.32" y1="43.24" x2="33.96" y2="40"/><path class="a" d="M20.15,53.38s5.63,0,7.17-1v5"/></svg>